<?xml version="1.0" encoding="UTF-8" standalone="no"?>
<!DOCTYPE svg PUBLIC "-//W3C//DTD SVG 1.1//EN" "http://www.w3.org/Graphics/SVG/1.1/DTD/svg11.dtd">
<svg width="100%" height="100%" viewBox="0 0 500 500" version="1.1" xmlns="http://www.w3.org/2000/svg" xmlns:xlink="http://www.w3.org/1999/xlink" xml:space="preserve" xmlns:serif="http://www.serif.com/" style="fill-rule:evenodd;clip-rule:evenodd;stroke-linejoin:round;stroke-miterlimit:1.41421;">
    <g transform="matrix(2.07272,-1.94434,1.94434,2.07272,-694.926,237.657)">
        <path d="M242.694,130.07C262.537,158.475 291.712,181.489 322.726,193.201C303.976,222.469 292.832,259.706 292.157,295.35C260.726,285.033 224.663,285.033 193.232,295.35C192.557,259.706 181.413,222.469 162.663,193.201C193.676,181.489 222.852,158.475 242.694,130.07Z" style="fill:rgb(241,103,102);"/>
    </g>
    <g transform="matrix(2.3299,-0.955434,0.955434,2.3299,-552.347,-21.5879)">
        <path d="M242.694,130.07C262.537,158.475 291.712,181.489 322.726,193.201C303.976,222.469 292.832,259.706 292.157,295.35C260.726,285.033 224.663,285.033 193.232,295.35C192.557,259.706 181.413,222.469 162.663,193.201C193.676,181.489 222.852,158.475 242.694,130.07Z" style="fill:rgb(241,210,102);"/>
    </g>
    <g transform="matrix(2.00785,0.538001,-0.538001,2.00785,-183.743,-276.596)">
        <path d="M242.694,130.07C262.537,158.475 291.712,181.489 322.726,193.201C303.976,222.469 292.832,259.706 292.157,295.35C260.726,285.033 224.663,285.033 193.232,295.35C192.557,259.706 181.413,222.469 162.663,193.201C193.676,181.489 222.852,158.475 242.694,130.07Z" style="fill:rgb(158,212,208);"/>
    </g>
</svg>
